HIERARCHY
ROOT hip
{
	OFFSET 0.000000 0.000000 0.000000 
	CHANNELS 6 Xposition Yposition Zposition Xrotation Zrotation Yrotation
	JOINT abdomen
	{
		OFFSET 0.000000 3.402643 0.000000 
		CHANNELS 3 Xrotation Zrotation Yrotation
		JOINT chest
		{
			OFFSET 0.000000 8.438565 -0.680529 
			CHANNELS 3 Xrotation Zrotation Yrotation
			JOINT neck
			{
				OFFSET 0.000000 10.207942 -0.272212 
				CHANNELS 3 Xrotation Zrotation Yrotation
				JOINT head
				{
					OFFSET 0.000000 3.130431 0.000000 
					CHANNELS 3 Xrotation Zrotation Yrotation
					End Site
					{
						OFFSET 0.000000 3.130435 0.000000 
					}
				}
			}
			JOINT lCollar
			{
				OFFSET 3.470700 6.669187 -0.816635 
				CHANNELS 3 Yrotation Zrotation Xrotation
				JOINT lShldr
				{
					OFFSET 3.198488 0.000000 0.000000 
					CHANNELS 3 Zrotation Yrotation Xrotation
					JOINT lForeArm
					{
						OFFSET 10.139888 0.000000 0.000000 
						CHANNELS 3 Yrotation Zrotation Xrotation
						JOINT lHand
						{
							OFFSET 8.370511 0.000000 0.000000 
							CHANNELS 3 Zrotation Yrotation Xrotation
							End Site
							{
								OFFSET 4.083176 0.000000 0.000000 
							}
						}
					}
				}
			}
			JOINT rCollar
			{
				OFFSET -3.470700 6.669187 -0.816635 
				CHANNELS 3 Yrotation Zrotation Xrotation
				JOINT rShldr
				{
					OFFSET -3.198488 0.000000 0.000000 
					CHANNELS 3 Zrotation Yrotation Xrotation
					JOINT rForeArm
					{
						OFFSET -10.139888 0.000000 0.000000 
						CHANNELS 3 Yrotation Zrotation Xrotation
						JOINT rHand
						{
							OFFSET -8.370511 0.000000 0.000000 
							CHANNELS 3 Zrotation Yrotation Xrotation
							End Site
							{
								OFFSET -4.083176 0.000000 0.000000 
							}
						}
					}
				}
			}
		}
	}
	JOINT lThigh
	{
		OFFSET 5.308129 -1.633274 1.361059 
		CHANNELS 3 Xrotation Zrotation Yrotation
		JOINT lShin
		{
			OFFSET -2.041588 -20.007561 0.000000 
			CHANNELS 3 Xrotation Zrotation Yrotation
			JOINT lFoot
			{
				OFFSET 0.000000 -19.190928 -1.224953 
				CHANNELS 3 Xrotation Yrotation Zrotation
				End Site
				{
					OFFSET 0.000000 -2.449906 4.627600 
				}
			}
		}
	}
	JOINT rThigh
	{
		OFFSET -5.308129 -1.633274 1.361059 
		CHANNELS 3 Xrotation Zrotation Yrotation
		JOINT rShin
		{
			OFFSET 2.041588 -20.007561 0.000000 
			CHANNELS 3 Xrotation Zrotation Yrotation
			JOINT rFoot
			{
				OFFSET 0.000000 -19.190928 -1.224953 
				CHANNELS 3 Xrotation Yrotation Zrotation
				End Site
				{
					OFFSET 0.000000 -2.449906 4.627600 
				}
			}
		}
	}
}
MOTION
Frames: 18
Frame Time: 0.033333
0.449146 42.935329 4.158204 13.130298 -4.843691 0.283841 0.000000 0.000000 0.000000 -2.180798 0.727493 6.650969 21.049126 4.960881 0.274947 -22.295734 -4.379061 -2.928540 -30.605095 26.323130 24.985867 -95.817375 -30.916155 1.512722 -25.450403 5.201085 57.472210 2.349067 16.220951 -59.873581 1.463822 -20.511707 24.952394 68.539284 2.643358 71.137642 35.212540 -26.939823 -7.380480 25.124935 -16.596527 -79.595543 -36.263554 2.341918 14.245852 72.147041 27.852846 3.390947 -20.890047 -18.777752 -12.369371 -32.898167 3.857523 3.566996 68.025612 0.391353 5.418763 -23.975060 -2.674201 15.534659 
0.417605 44.452961 4.271199 14.636663 -4.666907 1.224601 0.000000 0.000000 0.000000 -4.128443 0.358939 6.591973 21.716595 5.292900 0.294422 -21.004820 -4.444063 -3.664049 -31.191931 27.824110 24.993111 -96.910240 -28.275396 1.966990 -30.623383 2.685233 64.986626 -1.772775 17.363825 -60.418964 0.642932 -21.043863 24.636868 68.464928 0.616140 71.513123 38.937618 -27.119755 -2.928078 24.824978 -16.668016 -79.460983 -34.964840 3.005632 14.678697 64.739159 25.303501 3.005807 -12.372592 -22.262917 -5.339319 -30.866175 3.271265 3.286533 60.524158 -0.199062 4.611489 -14.493595 -2.042118 21.706945 
0.424696 46.944305 4.249152 16.988077 -4.557005 2.262690 0.000000 0.000000 0.000000 -6.787667 0.164928 6.562529 23.760649 5.693280 0.305116 -19.095867 -4.592342 -4.938092 -32.176941 28.719849 24.994337 -97.546059 -25.358841 2.211524 -35.563541 -0.941483 70.303131 -4.073389 21.678963 -61.019894 -0.035816 -20.529835 24.391270 68.597099 -1.480689 72.032349 40.018337 -27.311117 -2.328122 25.462749 -18.028709 -79.325294 -33.661373 3.779215 15.123836 53.805325 20.503399 2.277336 3.559959 -26.044210 6.093002 -28.597292 1.893920 2.808739 49.336212 -0.127735 3.520649 -0.262882 0.792315 25.440554 
0.529151 49.442322 3.792202 19.084135 -4.669299 3.448336 0.000000 0.000000 0.000000 -7.512431 0.562584 6.660505 24.634714 6.035055 0.334298 -18.936586 -5.213660 -6.197710 -34.655506 28.738499 24.992308 -97.555862 -24.642115 2.198701 -39.960922 -2.916637 76.184898 -9.134870 22.340872 -62.379208 -0.056676 -19.009203 24.429029 67.899925 -1.549723 71.576248 37.670761 -28.067894 -1.961623 28.643869 -17.511570 -79.729729 -36.711800 3.454673 14.498745 51.372257 17.242249 1.603037 16.021687 -25.794699 16.358416 -31.163687 -0.020409 2.358863 47.562855 1.256574 3.673428 8.311271 3.250932 23.424105 
0.655548 51.684029 3.170459 19.823881 -4.895776 4.685071 0.000000 0.000000 0.000000 -5.918877 1.299342 6.818189 24.681297 6.552597 0.374242 -19.778433 -6.026829 -7.188695 -37.816994 28.401463 24.991209 -97.450111 -25.382715 2.162283 -43.583015 -3.486167 80.634056 -14.248889 21.112103 -63.540813 0.336271 -17.183960 24.606911 66.376572 -0.139143 70.284973 34.494106 -28.788759 -1.036893 32.076153 -15.744246 -80.292747 -41.469135 2.586326 13.319144 55.901970 16.157042 1.162894 22.754272 -24.343256 26.354019 -35.796162 -1.972477 1.988692 53.503841 2.872977 4.584407 12.271708 5.139282 19.597380 
0.768635 53.519768 2.487880 18.786598 -5.148667 5.882974 0.000000 0.000000 0.000000 -1.809136 2.287538 6.997891 23.902142 7.226359 0.433645 -21.204538 -6.824035 -7.652587 -41.044998 28.080139 24.991028 -97.413391 -27.190062 2.182948 -46.526741 -2.882470 83.597969 -18.651831 18.987717 -64.113708 1.115536 -15.511115 24.874212 63.952564 2.434572 68.247871 31.824389 -29.358875 0.631319 34.850464 -13.390652 -80.721840 -47.034153 1.443627 11.798683 66.292679 16.681721 0.909698 24.924936 -23.430380 35.886272 -41.406048 -3.818325 1.737189 65.562843 4.190260 5.996636 13.174334 6.807200 16.470476 
0.787202 54.726566 1.865700 15.732284 -5.386081 6.424958 0.000000 0.000000 0.000000 4.767354 3.459565 7.113123 22.414101 7.519289 0.463983 -22.630215 -7.061684 -7.321865 -42.736866 27.952564 24.994909 -96.969269 -28.665253 2.007243 -49.342056 -1.656222 85.652679 -21.473988 17.363836 -64.253014 3.106318 -13.623315 24.996008 60.044685 4.511894 65.488541 31.904718 -32.060112 3.172455 38.065128 -12.337919 -81.187477 -52.830231 0.878966 10.306567 82.216568 17.753832 0.783012 23.305204 -22.692617 39.942169 -47.164238 -4.687406 1.816952 82.107391 4.296820 7.417243 11.709952 7.606280 14.592742 
0.728508 55.549263 1.222415 12.871709 -5.717006 6.339347 0.000000 0.000000 0.000000 11.347300 4.535197 7.122052 20.438597 7.323992 0.453023 -24.977180 -6.919863 -6.405046 -42.915363 28.515417 24.990038 -96.446342 -29.570658 1.787734 -52.333492 -0.714308 88.244377 -25.013485 16.653452 -64.922035 5.613161 -13.359431 24.997679 57.580620 8.012830 63.475155 30.675316 -33.843975 1.947485 38.065308 -12.111414 -81.130013 -59.589516 1.025518 8.610728 98.394333 17.460150 0.643584 22.210445 -21.192270 36.128853 -53.813286 -4.892087 2.122150 98.223724 3.652771 8.395811 10.501563 7.525203 13.501970 
0.617413 56.074314 0.520186 10.907124 -6.159793 5.814821 0.000000 0.000000 0.000000 17.216309 5.379268 7.042937 17.840862 6.659984 0.413051 -27.225126 -6.195717 -5.158056 -41.890785 29.655025 24.986116 -96.033363 -30.178064 1.595788 -55.069180 -0.102173 90.535912 -28.550016 16.129814 -65.700050 8.432072 -14.347080 25.000000 55.989246 12.463215 61.849110 28.597754 -34.956524 -2.024414 36.265907 -12.703188 -80.800919 -67.493408 1.639772 6.584734 113.088799 16.009886 0.535516 21.953373 -19.416229 28.367985 -61.672222 -4.755839 2.626153 112.921265 2.794119 8.911171 9.886209 6.818145 13.148876 
0.466353 56.335777 -0.275609 10.496827 -6.694839 4.857277 0.000000 0.000000 0.000000 21.671642 5.914167 6.902978 14.369072 5.537010 0.343971 -28.467875 -4.764602 -3.861108 -39.846443 29.992413 24.989801 -95.705635 -30.761297 1.463657 -57.149345 0.049765 91.606987 -30.823380 15.296564 -65.901413 11.365104 -16.248884 24.997375 54.923042 17.461782 60.404835 26.282505 -35.664810 -7.895747 33.841724 -13.937585 -80.394531 -76.839897 2.684466 4.142240 125.626839 13.986533 0.463180 21.682011 -17.176470 20.284830 -71.181885 -4.502200 3.299513 125.660362 2.037413 9.108554 9.803190 5.718098 13.564251 
0.350272 56.392452 -1.246885 13.335997 -7.063711 3.916018 0.000000 0.000000 0.000000 22.851871 6.089049 6.875912 10.284405 4.335888 0.274870 -29.747375 -3.549395 -3.131092 -37.983803 29.998508 24.988680 -95.343887 -32.399765 1.340019 -57.345474 0.477426 90.563942 -31.281765 14.772432 -65.699265 13.787388 -18.369442 25.000000 53.883846 22.343756 58.925430 23.619305 -35.382393 -14.167381 32.031761 -14.849545 -80.116806 -88.005226 3.290648 0.855789 132.915543 11.281404 0.134027 21.970398 -15.470066 13.205711 -83.283798 -5.303284 3.772951 133.571564 1.829353 9.150427 12.042856 4.963739 17.450705 
0.287549 56.385906 -2.080237 16.231970 -7.029206 3.334635 0.000000 0.000000 0.000000 23.408974 5.983133 6.815577 6.643471 3.359351 0.215619 -31.140345 -2.906840 -2.738283 -36.325512 29.991787 24.991402 -95.249336 -34.305351 1.364910 -56.609695 1.425777 88.791222 -30.337324 14.050302 -65.014709 15.729233 -20.344549 24.997511 53.069817 26.631931 57.604504 20.364542 -34.906281 -18.335550 33.466125 -13.446775 -80.392029 -96.279526 3.623144 -1.634596 134.707138 9.248139 -0.236464 22.863184 -16.607683 9.372428 -92.829987 -6.366787 3.975368 135.619553 2.141715 9.202540 15.110048 5.329784 18.483011 
0.258648 56.317596 -2.750485 18.831419 -6.738586 3.047663 0.000000 0.000000 0.000000 23.540154 5.751227 6.743561 3.659139 2.490225 0.156527 -32.435463 -2.712052 -2.600752 -34.914768 29.999332 24.991161 -95.263290 -36.180470 1.432726 -55.441235 2.492898 86.731125 -28.675928 13.268219 -64.171570 17.280088 -22.116432 24.995340 53.091263 30.296387 56.801430 16.835649 -34.595749 -20.011774 36.656147 -10.402310 -80.901306 -101.434914 3.827998 -3.128736 132.392563 7.773025 -0.646421 23.892595 -18.902529 8.891745 -99.596169 -7.343565 4.046641 132.860611 3.010461 9.369890 18.456480 6.664605 16.534504 
0.223392 56.171619 -3.193238 20.544115 -6.525626 2.771565 0.000000 0.000000 0.000000 23.533987 5.567410 6.701793 1.799539 1.562498 0.097886 -33.189167 -2.595259 -2.463718 -33.560490 30.000000 24.992117 -95.149361 -37.196289 1.432622 -54.711220 3.018121 85.115532 -27.094299 12.895466 -63.615028 18.699543 -23.629072 24.992218 55.304977 33.468887 57.249893 13.413896 -35.302437 -18.401791 39.137123 -6.873417 -81.138992 -102.529190 4.043425 -3.421125 127.676918 7.654370 -0.911559 24.445065 -20.661619 11.261959 -102.284714 -7.870880 4.028047 126.593964 4.298904 9.645764 20.978033 8.850081 11.077114 
0.098064 55.838139 -3.488613 22.641523 -6.949026 1.976822 0.000000 0.000000 0.000000 21.857643 5.653216 6.831000 1.074825 0.888672 0.039209 -33.072643 -2.205521 -2.120952 -32.098873 29.997736 24.990326 -95.245773 -36.638515 1.460722 -55.102459 2.586319 84.864059 -26.389206 13.303606 -63.658894 19.593765 -24.429422 24.997694 59.367519 35.648621 58.965816 12.752995 -35.887661 -18.283493 39.353336 -6.134341 -81.119591 -101.486710 4.609063 -2.897516 120.753372 9.134183 -0.751239 25.377516 -21.288740 12.554811 -101.129143 -7.460728 4.075419 117.911034 6.475755 9.922277 23.275614 10.005417 7.508910 
0.009423 55.353710 -3.603447 23.996691 -7.214489 1.455943 0.000000 0.000000 0.000000 19.921173 5.748402 6.978697 1.162109 0.302734 0.000052 -32.416187 -1.922754 -1.915278 -31.314962 30.000000 24.987537 -95.239037 -35.633476 1.410002 -55.824818 1.698686 85.305687 -26.202597 14.312812 -64.100159 19.766785 -24.653006 24.998077 64.579491 36.431396 61.675426 13.416312 -36.223118 -18.918581 38.627663 -6.759899 -81.044548 -97.996742 4.931311 -1.760833 112.985817 11.030663 -0.563878 26.385382 -20.898304 12.574733 -97.088226 -7.011271 4.013882 108.800179 8.144992 10.002054 25.923515 9.451167 5.633951 
-0.032048 54.695839 -3.536299 24.569101 -7.234624 1.250036 0.000000 0.000000 0.000000 17.796721 5.766334 7.097244 2.011859 -0.205078 -0.039097 -31.370701 -1.717867 -1.836869 -31.219940 29.999765 24.987190 -95.105736 -34.278893 1.280197 -56.582096 0.400929 86.213158 -26.405178 15.871696 -64.901001 19.218908 -24.307011 25.000000 70.409950 35.537796 65.170677 15.059668 -36.030411 -20.434782 36.944477 -8.356789 -80.842484 -91.996719 4.940889 0.115523 104.436211 13.335652 -0.211313 27.266907 -19.716673 11.556326 -90.323265 -6.563033 3.802610 99.096069 9.246416 9.741200 29.152330 7.481409 4.668334 
-0.052263 53.760563 -3.291289 24.696850 -7.147308 1.023528 0.000000 0.000000 0.000000 14.926579 5.793295 7.264372 3.731133 -0.556640 -0.068451 -30.230421 -1.386052 -1.778005 -31.430550 29.991535 24.992422 -94.789810 -32.427608 1.062575 -56.838699 -1.289713 87.261017 -26.702665 17.930904 -65.971321 18.016901 -23.224689 24.992109 75.670090 32.847389 68.759811 17.629559 -34.388371 -23.827654 33.769501 -10.847059 -80.421478 -83.984062 4.871592 2.572876 95.101082 15.875241 0.276643 27.545403 -17.966982 10.044110 -81.270905 -6.035474 3.439208 88.989944 10.126796 9.284225 32.552723 4.639573 2.836564 
